<svg width="225" height="223" viewBox="0 0 225 223" fill="none" xmlns="http://www.w3.org/2000/svg">
<g clip-path="url(#clip0_381_11086)">
<path d="M185.398 78.2171C185.398 78.2171 185.398 78.2171 185.47 78.1471C186.626 76.3124 186.489 72.047 186.954 70.7786C184.5 71.0239 182.031 71.0715 179.57 70.921C179.665 69.8329 181.961 64.7915 182.494 63.7358C180.261 64.3971 177.973 64.856 175.658 65.1067C175.395 63.7395 176.761 58.3074 177.167 57.2505C177.167 57.2505 173.048 59.135 170.221 58.9811C170.199 57.5312 172.533 51.486 172.533 51.486C172.21 51.2567 165.509 51.7379 164.555 51.6935C164.767 49.4256 166.152 47.3243 166.9 45.1888C165.272 44.6713 162.483 44.9703 160.805 45.2019C161.609 43.0771 162.286 40.9064 162.832 38.7012C162.868 38.5084 162.915 38.3176 162.972 38.1298C162.894 38.0875 162.806 38.0672 162.718 38.0708C159.925 38.7516 39.1593 139.17 19.146 155.026C19.146 155.026 19.2091 155.09 19.2441 155.126C21.8626 155.653 24.6445 156.103 26.3729 156.537C26.2262 158.586 26.1787 160.622 26.0744 162.686C27.41 162.777 32.1357 162.567 32.1357 162.567C32.4146 162.98 31.7068 167.541 32.0804 169.164C34.3892 169.546 36.8208 169.64 39.0241 169.958C38.4784 171.586 36.9984 172.548 36.6158 174.128C38.8743 174.608 41.1554 174.974 43.4505 175.225C42.1159 177.278 42.14 179.215 40.8078 181.756C43.2655 182.298 45.7912 182.465 48.2988 182.251C47.6472 183.857 47.3832 185.601 46.4568 187.112C47.7068 187.287 50.0762 187.231 50.8497 187.691C50.4179 189.964 49.8512 192.209 49.1527 194.414C81.9694 169.875 180.163 88.9445 193.608 76.7885C190.733 77.2139 185.997 77.7702 185.435 78.0548L185.398 78.2171Z" fill="#F9DBD7"/>
<mask id="mask0_381_11086" style="mask-type:luminance" maskUnits="userSpaceOnUse" x="19" y="38" width="175" height="157">
<path d="M185.398 78.2171C185.398 78.2171 185.398 78.2171 185.47 78.1471C186.626 76.3124 186.489 72.047 186.954 70.7786C184.5 71.0239 182.031 71.0715 179.57 70.921C179.665 69.8329 181.961 64.7915 182.494 63.7358C180.261 64.3971 177.973 64.856 175.658 65.1067C175.395 63.7395 176.761 58.3074 177.167 57.2505C177.167 57.2505 173.048 59.135 170.221 58.9811C170.199 57.5312 172.533 51.486 172.533 51.486C172.21 51.2567 165.509 51.7379 164.555 51.6935C164.767 49.4256 166.152 47.3243 166.9 45.1888C165.272 44.6713 162.483 44.9703 160.805 45.2019C161.609 43.0771 162.286 40.9064 162.832 38.7012C162.868 38.5084 162.915 38.3176 162.972 38.1298C162.894 38.0875 162.806 38.0672 162.718 38.0708C159.925 38.7516 39.1593 139.17 19.146 155.026C19.146 155.026 19.2091 155.09 19.2441 155.126C21.8626 155.653 24.6445 156.103 26.3729 156.537C26.2262 158.586 26.1787 160.622 26.0744 162.686C27.41 162.777 32.1357 162.567 32.1357 162.567C32.4146 162.98 31.7068 167.541 32.0804 169.164C34.3892 169.546 36.8208 169.64 39.0241 169.958C38.4784 171.586 36.9984 172.548 36.6158 174.128C38.8743 174.608 41.1554 174.974 43.4505 175.225C42.1159 177.278 42.14 179.215 40.8078 181.756C43.2655 182.298 45.7912 182.465 48.2988 182.251C47.6472 183.857 47.3832 185.601 46.4568 187.112C47.7068 187.287 50.0762 187.231 50.8497 187.691C50.4179 189.964 49.8512 192.209 49.1527 194.414C81.9694 169.875 180.163 88.9445 193.608 76.7885C190.733 77.2139 185.997 77.7702 185.435 78.0548L185.398 78.2171Z" fill="white"/>
</mask>
<g mask="url(#mask0_381_11086)">
<path d="M159.83 69.0098L159.895 68.9468C159.795 68.9742 159.753 69.0162 159.83 69.0098Z" fill="#EFB5AF"/>
<path d="M57.6262 154.519C56.3109 155.278 42.1984 162.555 40.2274 157.863C38.9204 154.732 46.6928 152.387 48.6334 152.066C45.6706 151.302 36.7848 146.502 43.2162 143.133C47.0608 141.126 54.2523 148.625 57.6262 154.519Z" fill="#EFB5AF"/>
<path d="M72.3863 149.803C69.2672 149.123 59.0876 143.546 60.4203 139.45C61.9425 134.762 67.5895 138.832 68.7099 141.487C66.5718 138.766 68.949 131.894 73.0813 134.62C77.052 137.224 74.8299 147.881 72.3863 149.803Z" fill="#EFB5AF"/>
<path d="M59.7463 164.39C64.2533 167.869 74.2183 174.455 70.9652 182.719C67.2816 183.405 63.3239 179.429 61.6843 176.331C63.7601 179.66 64.0246 188.339 58.0759 184.775C51.4874 180.816 56.8141 168.626 59.7463 164.39Z" fill="#EFB5AF"/>
<path d="M61.767 126.385C57.1677 126.695 50.3601 130.209 45.7734 127.691C39.1675 124.071 47.1519 121 51.3927 121.21C47.8022 119.521 42.7747 114.255 50.0132 113.779C55.0228 113.458 56.7385 119.733 61.767 126.385Z" fill="#EFB5AF"/>
<path d="M28.7722 166.049C25.1054 165.71 15.9155 158.658 14.6715 154.863C12.7538 149.011 19.7799 149.318 22.4804 153.141C19.2452 151.272 22.0452 144.559 25.4971 145.193C32.8951 146.55 27.2559 161.134 28.7722 166.049Z" fill="#EFB5AF"/>
<path d="M41.4308 186.931C44.8336 184.53 44.8182 175.677 42.1035 172.61C37.7234 167.676 37.4864 173.302 38.9223 177.007C35.0662 177.989 31.311 176.518 27.3661 178.666C29.8198 183.165 34.7403 185.538 41.4308 186.931Z" fill="#EFB5AF"/>
<path d="M86.6491 173.786C82.5128 172.241 73.8099 171.282 72.0331 166.244C70.1048 160.767 77.1834 161.499 80.2366 163.925C78.6993 161.973 78.6467 155.565 82.1927 155.224C87.9823 154.671 90.4253 168.54 86.6491 173.786Z" fill="#EFB5AF"/>
<path d="M85.8294 125.053C82.75 124.656 72.3048 124.734 70.9859 120.634C69.5638 116.215 77.8137 116.47 80.0915 118.634C76.139 117.833 71.242 110.73 77.4935 109.191C84.0212 107.605 88.483 120.361 85.8294 125.053Z" fill="#EFB5AF"/>
<path d="M85.3462 142.518C87.0922 146.325 93.9658 153.044 98.7392 151.527C105.463 149.398 98.7315 143.352 94.0106 144.552C97.261 142.567 101.197 137.598 98.2357 133.709C94.615 135.216 91.759 138.131 85.3462 142.518Z" fill="#EFB5AF"/>
<path d="M117.304 143.819C114.413 143.658 107.105 139.48 107.629 135.674C108.206 131.465 112.906 133.298 114.971 135.474C113.882 133.279 116.147 127.035 119.468 128.778C123.395 130.837 120.373 143.763 117.304 143.819Z" fill="#EFB5AF"/>
<path d="M113.556 121.368C109.955 123.052 101.831 125.868 98.3865 122.243C94.9416 118.618 101.189 116.061 104.937 116.796C102.571 116.442 96.2347 112.726 100.514 110.404C104.793 108.083 112.753 117.238 113.556 121.368Z" fill="#EFB5AF"/>
<path d="M86.5017 89.8134C86.1485 92.7659 87.5477 105.6 91.5918 106.423C95.1562 107.128 93.3638 100.747 92.4098 99.1752C95.0357 101.166 101.166 102.016 101.209 97.4621C101.268 91.9541 90.8878 91.8702 86.5017 89.8134Z" fill="#EFB5AF"/>
<path d="M146.192 85.1936C144.877 85.952 130.765 93.2295 128.794 88.5367C127.487 85.4059 135.259 83.0609 137.2 82.7398C134.237 81.9764 125.358 77.183 131.782 73.8069C135.656 71.7716 142.818 79.2996 146.192 85.1936Z" fill="#EFB5AF"/>
<path d="M160.967 80.4623C157.819 79.8103 147.654 74.1916 148.98 70.0886C150.502 65.4005 156.149 69.4704 157.269 72.1256C155.131 69.4042 157.516 62.525 161.641 65.2582C165.618 67.898 163.396 78.5548 160.967 80.4623Z" fill="#EFB5AF"/>
<path d="M148.32 95.0564C152.827 98.5357 162.792 105.135 159.531 113.392C155.848 114.079 151.89 110.103 150.25 107.004C152.326 110.333 152.591 119.012 146.649 115.442C140.054 111.49 145.38 99.2998 148.32 95.0564Z" fill="#EFB5AF"/>
<path d="M150.333 57.0606C145.741 57.3638 138.926 60.8846 134.34 58.3663C127.734 54.747 135.718 51.6756 139.959 51.8854C136.368 50.1968 131.348 44.9236 138.587 44.4475C143.589 44.1341 145.312 50.4156 150.333 57.0606Z" fill="#EFB5AF"/>
<path d="M117.338 96.7224C113.679 96.3766 104.482 89.3315 103.238 85.5366C101.327 79.6776 108.353 79.9844 111.046 83.8142C107.811 81.9451 110.611 75.2325 114.063 75.8662C121.461 77.2231 115.822 91.8076 117.338 96.7224Z" fill="#EFB5AF"/>
<path d="M129.997 117.605C133.4 115.204 133.391 106.344 130.67 103.284C126.289 98.3496 124.239 105.769 125.675 109.474C123.105 106.855 119.877 107.192 115.932 109.34C118.372 113.853 123.306 116.212 129.997 117.605Z" fill="#EFB5AF"/>
<path d="M175.215 104.462C171.079 102.917 162.376 101.958 160.599 96.9202C158.671 91.4429 165.75 92.1745 168.803 94.6005C167.265 92.6484 167.22 86.2343 170.759 85.9C176.548 85.3465 178.999 99.2083 175.215 104.462Z" fill="#EFB5AF"/>
<path d="M174.41 55.7398C171.337 55.336 160.885 55.4211 159.566 51.3214C158.144 46.9025 166.394 47.1572 168.707 49.357C164.754 48.556 159.864 41.4455 166.109 39.9134C172.587 38.2775 177.049 51.0339 174.41 55.7398Z" fill="#EFB5AF"/>
<path d="M173.912 73.1941C175.658 77.0009 182.532 83.72 187.305 82.2023C194.029 80.0737 187.298 74.0277 182.584 75.2207C185.827 73.243 189.771 68.2667 186.802 64.3847C183.209 65.9207 180.29 68.7853 173.912 73.1941Z" fill="#EFB5AF"/>
<path d="M205.863 74.5149C202.972 74.3533 195.664 70.1758 196.188 66.3693C196.765 62.1602 201.507 64.0223 203.537 66.1629C202.441 63.9746 204.706 57.7307 208.027 59.4734C211.968 61.5188 208.939 74.4379 205.863 74.5149Z" fill="#EFB5AF"/>
<path d="M202.129 52.0476C198.521 53.7248 190.405 56.5475 186.96 52.9227C183.515 49.2979 189.762 46.7404 193.51 47.4759C191.151 47.1142 184.808 43.4055 189.087 41.0841C193.366 38.7626 201.32 47.9103 202.129 52.0476Z" fill="#EFB5AF"/>
<path d="M175.075 20.4794C174.722 23.4319 176.114 36.2725 180.165 37.0887C183.694 37.8291 181.93 31.4199 180.976 29.8481C183.602 31.8388 189.732 32.6887 189.775 28.1351C189.834 22.6271 179.461 22.5362 175.075 20.4794Z" fill="#EFB5AF"/>
<path d="M144.508 124.298C139.157 121.815 130.054 124.331 126.445 129.063C128.286 134.794 133.465 131.548 136.208 128.632C136.248 131.843 137.447 139.647 141.211 140.941C148.14 143.319 147.396 130.682 144.508 124.298Z" fill="#EFB5AF"/>
<path d="M55.5643 193.151C50.2206 190.661 41.1102 193.17 37.5014 197.916C39.3354 203.64 44.521 200.401 47.257 197.478C47.2974 200.688 48.5035 208.5 52.3031 209.759C59.1963 212.157 58.4669 199.535 55.5643 193.151Z" fill="#EFB5AF"/>
</g>
</g>
<defs>
<clipPath id="clip0_381_11086">
<rect width="229.4" height="87.01" fill="white" transform="translate(0 160.672) rotate(-44.4589)"/>
</clipPath>
</defs>
</svg>
